<svg version="1.1" viewBox="-10 0 2058 2048" xmlns="http://www.w3.org/2000/svg">
  <path fill="#555" d="M 0 960 C 0 871.3333333333334 11.333333333333332 786.1666666666666 34 704.5 C 56.66666666666667 622.8333333333334 88.83333333333334 546.3333333333334 130.5 475 C 172.16666666666666 403.6666666666667 222.16666666666666 338.8333333333333 280.5 280.5 C 338.8333333333333 222.16666666666666 403.6666666666667 172.16666666666666 475 130.5 C 546.3333333333334 88.83333333333334 622.8333333333334 56.66666666666667 704.5 34 C 786.1666666666666 11.333333333333332 871.3333333333334 0 960 0 C 1048.6666666666667 0 1133.8333333333333 11.333333333333332 1215.5 34 C 1297.1666666666667 56.66666666666667 1373.6666666666667 88.83333333333334 1445 130.5 C 1516.3333333333333 172.16666666666666 1581.1666666666667 222.16666666666666 1639.5 280.5 C 1697.8333333333333 338.8333333333333 1747.8333333333333 403.6666666666667 1789.5 475 C 1831.1666666666667 546.3333333333334 1863.3333333333333 622.8333333333334 1886 704.5 C 1908.6666666666667 786.1666666666666 1920 871.3333333333334 1920 960 C 1920 1048.6666666666667 1908.5 1133.8333333333333 1885.5 1215.5 C 1862.5 1297.1666666666667 1830.1666666666667 1373.5 1788.5 1444.5 C 1746.8333333333333 1515.5 1696.8333333333333 1580.1666666666667 1638.5 1638.5 C 1580.1666666666667 1696.8333333333333 1515.5 1746.8333333333333 1444.5 1788.5 C 1373.5 1830.1666666666667 1297 1862.5 1215 1885.5 C 1133 1908.5 1048 1920 960 1920 C 871.3333333333334 1920 786 1908.6666666666667 704 1886 C 622 1863.3333333333333 545.5 1831.1666666666667 474.5 1789.5 C 403.5 1747.8333333333333 338.8333333333333 1697.8333333333333 280.5 1639.5 C 222.16666666666666 1581.1666666666667 172.16666666666666 1516.5 130.5 1445.5 C 88.83333333333334 1374.5 56.66666666666667 1298 34 1216 C 11.333333333333332 1134 0 1048.6666666666667 0 960 Z"/>
  <path fill="#fff" d="M 1792 960 C 1792 883.3333333333334 1782.1666666666667 809.5 1762.5 738.5 C 1742.8333333333333 667.5 1714.8333333333333 601.1666666666666 1678.5 539.5 C 1642.1666666666667 477.8333333333333 1598.8333333333333 421.8333333333333 1548.5 371.5 C 1498.1666666666667 321.1666666666667 1442.1666666666667 277.8333333333333 1380.5 241.5 C 1318.8333333333333 205.16666666666666 1252.5 177.16666666666666 1181.5 157.5 C 1110.5 137.83333333333334 1036.6666666666667 128 960 128 C 883.3333333333334 128 809.5 137.83333333333334 738.5 157.5 C 667.5 177.16666666666666 601.1666666666666 205.16666666666666 539.5 241.5 C 477.8333333333333 277.8333333333333 421.8333333333333 321.1666666666667 371.5 371.5 C 321.1666666666667 421.8333333333333 277.8333333333333 477.8333333333333 241.5 539.5 C 205.16666666666666 601.1666666666666 177.16666666666666 667.5 157.5 738.5 C 137.83333333333334 809.5 128 883.3333333333334 128 960 C 128 1036.6666666666667 137.83333333333334 1110.5 157.5 1181.5 C 177.16666666666666 1252.5 205 1318.8333333333333 241 1380.5 C 277 1442.1666666666667 320.3333333333333 1498.3333333333333 371 1549 C 421.6666666666667 1599.6666666666667 477.8333333333333 1643 539.5 1679 C 601.1666666666666 1715 667.5 1742.8333333333333 738.5 1762.5 C 809.5 1782.1666666666667 883.3333333333334 1792 960 1792 C 1036.6666666666667 1792 1110.5 1782.1666666666667 1181.5 1762.5 C 1252.5 1742.8333333333333 1318.8333333333333 1715 1380.5 1679 C 1442.1666666666667 1643 1498.3333333333333 1599.6666666666667 1549 1549 C 1599.6666666666667 1498.3333333333333 1643 1442.1666666666667 1679 1380.5 C 1715 1318.8333333333333 1742.8333333333333 1252.5 1762.5 1181.5 C 1782.1666666666667 1110.5 1792 1036.6666666666667 1792 960 Z"/>
  <path fill="#0078D4" d="M 896 1344 L 896 832 C 896 814.6666666666666 902.3333333333334 799.6666666666666 915 787 C 927.6666666666666 774.3333333333334 942.6666666666666 768 960 768 C 977.3333333333334 768 992.3333333333334 774.3333333333334 1005 787 C 1017.6666666666666 799.6666666666666 1024 814.6666666666666 1024 832 L 1024 1344 C 1024 1361.3333333333333 1017.6666666666666 1376.3333333333333 1005 1389 C 992.3333333333334 1401.6666666666667 977.3333333333334 1408 960 1408 C 942.6666666666666 1408 927.6666666666666 1401.6666666666667 915 1389 C 902.3333333333334 1376.3333333333333 896 1361.3333333333333 896 1344 Z"/>
  <path fill="#0078D4" d="M 864 576 C 864 549.3333333333334 873.3333333333334 526.6666666666666 892 508 C 910.6666666666666 489.3333333333333 933.3333333333334 480 960 480 C 986.6666666666666 480 1009.3333333333334 489.3333333333333 1028 508 C 1046.6666666666667 526.6666666666666 1056 549.3333333333334 1056 576 C 1056 602.6666666666666 1046.6666666666667 625.3333333333334 1028 644 C 1009.3333333333334 662.6666666666666 986.6666666666666 672 960 672 C 933.3333333333334 672 910.6666666666666 662.6666666666666 892 644 C 873.3333333333334 625.3333333333334 864 602.6666666666666 864 576 Z"/>
</svg>