<?xml version="1.0" encoding="utf-8"?>
<svg version="1.1" viewBox="0 0 16 16" xmlns="http://www.w3.org/2000/svg">
  <path fill="#555" d="M 12.067 1 C 12.458 1 12.832 1.079 13.188 1.238 C 13.545 1.397 13.858 1.611 14.126 1.879 C 14.394 2.147 14.608 2.46 14.767 2.816 C 14.925 3.173 15.005 3.547 15.005 3.938 L 15.005 12.063 C 15.005 12.453 14.925 12.827 14.767 13.184 C 14.608 13.54 14.394 13.853 14.126 14.121 C 13.858 14.389 13.545 14.603 13.188 14.762 C 12.832 14.921 12.458 15 12.067 15 L 3.942 15 C 3.552 15 3.178 14.921 2.821 14.762 C 2.465 14.603 2.152 14.389 1.884 14.121 C 1.616 13.853 1.402 13.54 1.243 13.184 C 1.084 12.827 1.005 12.453 1.005 12.063 L 1.005 3.938 C 1.005 3.547 1.084 3.173 1.243 2.816 C 1.402 2.46 1.616 2.147 1.884 1.879 C 2.152 1.611 2.465 1.397 2.821 1.238 C 3.178 1.079 3.552 1 3.942 1 L 12.067 1 Z"/>
  <path fill="#fff" d="M 12.044 14 C 12.304 14 12.553 13.947 12.79 13.84 C 13.027 13.733 13.235 13.59 13.415 13.41 C 13.595 13.23 13.738 13.022 13.845 12.785 C 13.952 12.548 14.005 12.299 14.005 12.039 L 14.005 5.008 L 2.005 5.008 L 2.005 12.039 C 2.005 12.299 2.058 12.548 2.165 12.785 C 2.272 13.022 2.415 13.23 2.595 13.41 C 2.774 13.59 2.983 13.733 3.22 13.84 C 3.457 13.947 3.705 14 3.966 14 L 12.044 14 Z"/>
  <path fill="#fff" d="M 3.966 2 C 3.705 2 3.457 2.053 3.22 2.16 C 2.983 2.267 2.774 2.41 2.595 2.59 C 2.415 2.77 2.272 2.977 2.165 3.211 C 2.058 3.445 2.005 3.693 2.005 3.953 L 2.005 3.992 L 14.005 3.992 L 14.005 3.953 C 14.005 3.693 13.952 3.445 13.845 3.211 C 13.738 2.977 13.595 2.77 13.415 2.59 C 13.235 2.41 13.027 2.267 12.79 2.16 C 12.553 2.053 12.304 2 12.044 2 L 3.966 2 Z"/>
  <path fill="#555" d="M 9.005 10.5 C 9.005 10.635 8.955 10.753 8.856 10.852 C 8.757 10.951 8.64 11 8.505 11 C 8.369 11 8.252 10.951 8.153 10.852 C 8.054 10.753 8.005 10.635 8.005 10.5 C 8.005 10.365 8.054 10.247 8.153 10.148 C 8.252 10.049 8.369 10 8.505 10 C 8.64 10 8.757 10.049 8.856 10.148 C 8.955 10.247 9.005 10.365 9.005 10.5 Z"/>
  <path fill="#555" d="M 9.005 8.5 C 9.005 8.635 8.955 8.753 8.856 8.852 C 8.757 8.951 8.64 9 8.505 9 C 8.369 9 8.252 8.951 8.153 8.852 C 8.054 8.753 8.005 8.635 8.005 8.5 C 8.005 8.365 8.054 8.247 8.153 8.148 C 8.252 8.049 8.369 8 8.505 8 C 8.64 8 8.757 8.049 8.856 8.148 C 8.955 8.247 9.005 8.365 9.005 8.5 Z"/>
  <path fill="#555" d="M 3.942 9.344 C 3.942 9.536 3.952 9.734 3.97 9.938 C 3.988 10.141 4.035 10.327 4.11 10.496 C 4.186 10.665 4.295 10.803 4.438 10.91 C 4.582 11.017 4.778 11.07 5.028 11.07 C 5.174 11.07 5.293 11.051 5.384 11.012 C 5.475 10.973 5.552 10.924 5.614 10.867 C 5.677 10.81 5.73 10.746 5.774 10.676 C 5.819 10.605 5.863 10.542 5.907 10.484 C 5.952 10.427 6.002 10.379 6.06 10.34 C 6.117 10.301 6.192 10.281 6.286 10.281 C 6.416 10.281 6.526 10.327 6.614 10.418 C 6.703 10.509 6.747 10.62 6.747 10.75 C 6.747 10.813 6.734 10.878 6.708 10.945 C 6.557 11.294 6.33 11.557 6.028 11.734 C 5.726 11.911 5.388 12 5.013 12 C 4.596 12 4.23 11.893 3.915 11.68 C 3.6 11.466 3.367 11.167 3.216 10.781 C 3.112 10.521 3.05 10.266 3.032 10.016 C 3.014 9.766 3.005 9.505 3.005 9.234 C 3.005 9.073 3.024 8.905 3.063 8.73 C 3.103 8.556 3.151 8.393 3.208 8.242 C 3.349 7.857 3.562 7.553 3.849 7.332 C 4.135 7.111 4.487 7 4.903 7 C 5.362 7 5.746 7.102 6.056 7.305 C 6.366 7.508 6.588 7.833 6.724 8.281 C 6.739 8.328 6.747 8.38 6.747 8.438 C 6.747 8.563 6.703 8.672 6.614 8.766 C 6.526 8.859 6.416 8.906 6.286 8.906 C 6.151 8.906 6.049 8.87 5.981 8.797 C 5.914 8.724 5.856 8.638 5.81 8.539 C 5.763 8.44 5.712 8.34 5.657 8.238 C 5.603 8.137 5.523 8.06 5.419 8.008 C 5.351 7.977 5.278 7.957 5.2 7.949 C 5.122 7.941 5.044 7.938 4.966 7.938 L 4.88 7.938 C 4.703 7.938 4.554 7.983 4.435 8.074 C 4.315 8.165 4.218 8.281 4.146 8.422 C 4.073 8.563 4.021 8.715 3.989 8.879 C 3.958 9.043 3.942 9.198 3.942 9.344 Z"/>
  <path fill="#555" d="M 13.005 11.5 C 13.005 11.635 12.955 11.753 12.856 11.852 C 12.757 11.951 12.64 12 12.505 12 C 12.416 12 12.33 11.975 12.247 11.926 C 12.164 11.876 12.101 11.81 12.06 11.727 L 10.06 7.727 C 10.023 7.654 10.005 7.578 10.005 7.5 C 10.005 7.365 10.054 7.247 10.153 7.148 C 10.252 7.049 10.369 7 10.505 7 C 10.593 7 10.679 7.025 10.763 7.074 C 10.846 7.124 10.909 7.19 10.95 7.273 L 12.95 11.273 C 12.987 11.346 13.005 11.422 13.005 11.5 Z"/>
</svg>