<?xml version="1.0" encoding="utf-8"?>
<!-- Generator: Adobe Illustrator 26.2.1, SVG Export Plug-In . SVG Version: 6.00 Build 0)  -->
<svg version="1.1" id="Windows10X_Logo" xmlns="http://www.w3.org/2000/svg" xmlns:xlink="http://www.w3.org/1999/xlink" x="0px"
	 y="0px" viewBox="0 0 70 70" style="enable-background:new 0 0 70 70;" xml:space="preserve">
<style type="text/css">
	.st0{fill:url(#SVGID_1_);}
	.st1{fill:url(#SVGID_00000163773729938229822320000010354940017640492186_);}
	.st2{fill:url(#SVGID_00000080179178420277631580000013800780597664401050_);}
	.st3{fill:url(#SVGID_00000086673646172492737900000011948164801821031838_);}
</style>
<g>
	
		<linearGradient id="SVGID_1_" gradientUnits="userSpaceOnUse" x1="1.5828" y1="-6.7737" x2="29.9028" y2="-28.4237" gradientTransform="matrix(1 0 0 -1 0 3.15)">
		<stop  offset="0" style="stop-color:#00B5FC"/>
		<stop  offset="1" style="stop-color:#007FEA"/>
	</linearGradient>
	<path class="st0" d="M28.6,6.2v27c0,0.2-0.1,0.3-0.3,0.3c0,0,0,0,0,0h-28c-0.2,0-0.3-0.1-0.3-0.3c0,0,0,0,0,0V13.3
		c0-2,1.5-3.7,3.5-4l24.8-3.4C28.5,5.9,28.6,6,28.6,6.2C28.6,6.1,28.6,6.2,28.6,6.2z"/>
	
		<linearGradient id="SVGID_00000032620717054097068630000014696937513535602577_" gradientUnits="userSpaceOnUse" x1="33.0776" y1="-1.0314" x2="70.3649" y2="-29.547" gradientTransform="matrix(1 0 0 -1 0 3.15)">
		<stop  offset="0" style="stop-color:#00E7FD"/>
		<stop  offset="1" style="stop-color:#00C1F0"/>
	</linearGradient>
	<path style="fill:url(#SVGID_00000032620717054097068630000014696937513535602577_);" d="M69.9,4.4v28.7c0,0.2-0.1,0.3-0.3,0.3
		c0,0,0,0,0,0H32.4c-0.2,0-0.3-0.1-0.3-0.3c0,0,0,0,0,0V5.6c0-0.2,0.1-0.3,0.3-0.3l33-4.8c2.2-0.3,4.2,1.2,4.5,3.4
		C69.9,4,69.9,4.2,69.9,4.4z"/>
	
		<linearGradient id="SVGID_00000076561866404857494510000006345963564945709470_" gradientUnits="userSpaceOnUse" x1="-3.376559e-02" y1="-33.489" x2="31.2159" y2="-57.384" gradientTransform="matrix(1 0 0 -1 0 3.15)">
		<stop  offset="0" style="stop-color:#016EED"/>
		<stop  offset="1" style="stop-color:#0025C8"/>
	</linearGradient>
	<path style="fill:url(#SVGID_00000076561866404857494510000006345963564945709470_);" d="M28.6,36.8v27c0,0.2-0.1,0.3-0.3,0.3
		c0,0,0,0-0.1,0L3.5,60.6c-2-0.3-3.5-2-3.5-4V36.5h28.3C28.5,36.5,28.6,36.6,28.6,36.8C28.6,36.8,28.6,36.8,28.6,36.8z"/>
	
		<linearGradient id="SVGID_00000083083219422191737440000003072661711506003892_" gradientUnits="userSpaceOnUse" x1="32.3475" y1="-33.1917" x2="70.8158" y2="-62.6056" gradientTransform="matrix(1 0 0 -1 0 3.15)">
		<stop  offset="0" style="stop-color:#03D6FA"/>
		<stop  offset="1" style="stop-color:#0084E7"/>
	</linearGradient>
	<path style="fill:url(#SVGID_00000083083219422191737440000003072661711506003892_);" d="M69.9,36.8v28.7c0,2.2-1.7,4-4,4
		c-0.2,0-0.4,0-0.6,0l-33-4.8c-0.1,0-0.3-0.1-0.3-0.3V36.8c0-0.2,0.1-0.3,0.3-0.3c0,0,0,0,0,0h37.2C69.8,36.5,69.9,36.6,69.9,36.8
		C69.9,36.8,69.9,36.8,69.9,36.8z"/>
</g>
</svg>
